<svg width="93" height="87" viewBox="0 0 93 87" fill="none" xmlns="http://www.w3.org/2000/svg">
<path d="M71.5976 17.6488C63.759 11.278 53.9105 8.33865 43.8484 9.41095C33.8241 10.458 24.7921 15.3906 18.4232 23.2752C5.08256 39.8392 6.12519 64.8428 20.6467 76.7769C21.5386 77.496 22.644 77.8997 23.7872 77.8997C25.282 77.8997 26.6889 77.2311 27.6311 76.0831C27.8949 75.7551 28.1084 75.4145 28.2592 75.0865C28.4853 74.6323 28.6235 74.1277 28.6988 73.5978C28.9375 71.8695 28.2843 70.1791 26.9276 69.0563C23.963 66.6216 21.6768 63.2406 20.3327 59.3299C19.7799 57.0591 19.4408 54.7253 19.3403 52.3788C18.9634 43.1318 22.845 33.3549 29.44 26.858C33.1457 23.2121 39.3764 18.986 48.0692 19.5285C57.0007 20.0962 65.5679 25.3063 69.3616 32.5097C71.271 36.1176 72.2257 40.4195 72.1503 44.9484C72.1 48.3419 71.7734 52.7573 69.6505 56.832C67.7662 60.4653 64.5881 63.1271 60.6939 64.3256C56.6866 65.5619 52.4156 65.1456 48.6722 63.1271C45.3684 61.3483 42.743 58.081 41.4994 54.1828C40.3437 50.4991 40.6954 46.4875 42.5671 42.2487C43.0319 41.189 43.9364 40.6718 44.6147 40.4447C45.896 39.9906 47.4788 40.1041 48.6596 40.7222C50.9333 41.9333 51.1594 44.7465 50.2047 46.8912C50.1545 46.9921 50.1419 47.1056 50.1545 47.2065C50.0791 47.4084 50.0163 47.585 50.0037 47.6607C49.9409 47.9004 49.8781 48.1275 49.8279 48.3671C49.8279 48.4176 49.8028 48.4681 49.8028 48.5185C49.8028 48.5564 49.7902 48.5942 49.7902 48.6447C49.7902 48.6699 49.7902 48.6825 49.7902 48.7078C49.7776 48.8339 49.7651 48.9853 49.7651 49.1241C49.7651 49.3638 49.7651 49.6035 49.7651 49.8431V50.3478C49.7651 50.3478 49.7776 50.4487 49.7902 50.4991C49.7902 50.5244 49.7902 50.537 49.7902 50.5622L49.8781 50.9154C49.9409 51.1678 49.9912 51.4074 50.0791 51.6976L50.2173 52.1139C50.2173 52.1139 50.255 52.1896 50.2675 52.2274C50.3304 52.341 50.3932 52.4545 50.4434 52.5807C50.4937 52.6942 50.5565 52.8204 50.6193 52.9339C50.6821 53.0474 50.8579 53.2871 51.0213 53.5016C51.0464 53.5268 51.0715 53.5647 51.0841 53.5899C51.1092 53.6404 51.1343 53.6908 51.1594 53.7413C51.2474 53.8548 51.3353 53.9684 51.4358 54.0693C51.4986 54.1324 51.6619 54.2837 51.8378 54.4225C51.9257 54.4982 52.0262 54.5865 52.1016 54.6496C52.1393 54.7127 52.1895 54.7757 52.2523 54.8262C52.3026 54.864 52.3528 54.9019 52.4156 54.9397C52.4156 54.9397 52.5036 54.9524 52.5538 54.965L52.5287 55.0154C52.8176 55.1794 53.094 55.3434 53.3829 55.4948C53.4206 55.5201 53.4583 55.5327 53.4959 55.5453C53.5085 55.5453 53.5336 55.5579 53.5588 55.5579C53.6341 55.5831 53.7597 55.6336 53.8854 55.684C54.0487 55.7471 54.1994 55.7976 54.2873 55.8228L54.4506 55.8607C54.6265 55.9111 54.8149 55.949 55.0662 55.9868L55.3048 56.012C55.5435 56.0499 55.845 56.0877 55.9329 56.0877C56.1967 56.0877 56.4605 56.0877 56.7118 56.0877H57.2394C57.3022 56.0877 57.4906 56.0247 57.5534 55.9994C57.8926 55.8859 58.2569 55.785 58.6086 55.6967C58.6589 55.684 58.7594 55.6336 58.8096 55.6084C58.8096 55.6084 58.9101 55.5453 58.9227 55.5327L59.199 55.356C59.4251 55.2047 59.6764 55.0407 59.915 54.9145C59.9653 54.8893 60.0658 54.7884 60.116 54.7505L60.9326 53.8674C61.0331 53.8044 61.0959 53.7161 61.1461 53.6151L61.3597 53.2619C61.5607 52.9339 61.7616 52.6059 61.9501 52.2653C61.9501 52.2653 62.0003 52.177 62.0129 52.1391C62.038 52.0761 62.0882 51.9751 62.1511 51.849C62.1511 51.8238 62.2139 51.685 62.2264 51.6598C62.2767 51.4958 62.3646 51.2687 62.44 51.0794C62.5154 50.8902 62.5656 50.7262 62.5782 50.701C62.7038 50.2721 62.8168 49.8431 62.9173 49.3764L62.955 49.1619C62.9801 48.9979 63.0178 48.7708 63.0555 48.6573C63.0555 48.6068 63.0806 48.5438 63.0806 48.4933C63.1183 48.1779 63.1434 47.8499 63.156 47.5219C63.1811 47.0552 63.1937 46.5884 63.1937 46.1216L63.2188 45.2259C63.2314 44.1032 63.2188 43.2075 63.1434 42.3622L63.0932 41.9712C63.0681 41.7693 63.0429 41.5549 63.0178 41.4035L62.9425 40.9872C62.7666 40.0662 62.5279 39.1832 62.239 38.3506C62.1887 38.1992 62.1259 38.0478 62.038 37.8459C61.9626 37.7198 61.7365 37.2026 61.6737 37.0764C61.4099 36.6096 61.1461 36.1555 60.8697 35.7266L60.719 35.5121C60.6562 35.4238 60.5808 35.3103 60.5431 35.2472C60.5431 35.2472 60.5431 35.2346 60.5306 35.222C60.5055 35.1715 60.4803 35.1336 60.4426 35.0958C60.0155 34.5912 59.5508 34.1118 59.086 33.645C58.7845 33.3423 58.4579 33.0647 58.1438 32.7872L57.7544 32.4466C57.7544 32.4466 57.5911 32.333 57.5534 32.3078L56.9756 31.9293C56.4354 31.5761 55.9078 31.2229 55.3551 30.8949C54.6768 30.4912 53.9859 30.1254 53.2321 29.7847C53.1945 29.7595 53.1442 29.7469 53.1065 29.7343C52.9432 29.6838 52.491 29.5198 52.3654 29.4694C52.0765 29.3684 51.775 29.2675 51.5112 29.1918C50.6821 28.9395 49.8781 28.7755 48.9988 28.5989C48.9737 28.5989 48.8355 28.5863 48.8104 28.5863C48.7852 28.5863 48.6848 28.5863 48.6596 28.5863C48.5968 28.5863 48.5591 28.5863 48.5717 28.5863C48.534 28.5737 48.4838 28.5611 48.4461 28.5611C48.1948 28.5358 47.9436 28.5232 47.6924 28.5106C47.0768 28.4854 46.4487 28.5106 45.8332 28.5358L45.0669 28.5611C45.0669 28.5611 44.7906 28.5989 44.7403 28.6115C44.6147 28.6367 44.4765 28.662 44.3509 28.6872C44.2127 28.7124 44.0746 28.7377 43.9364 28.7755C43.0822 28.9647 42.2656 29.1918 41.4743 29.482C41.3612 29.5198 41.2607 29.5577 41.1602 29.5955C41.11 29.6081 41.0723 29.6334 41.022 29.646C41.0095 29.646 40.9969 29.6586 40.9843 29.6712C40.8587 29.7469 40.507 29.8857 40.2683 29.9992C39.4141 30.4407 38.6604 30.8823 37.9695 31.3617C37.668 31.5509 37.3665 31.778 37.1027 31.9672C37.0525 31.9924 37.0148 32.0303 36.9771 32.0681C36.952 32.0933 36.9143 32.1186 36.8892 32.1438L36.5751 32.4466C35.9596 33.0143 35.3189 33.5946 34.716 34.2253L34.0879 34.9192C34.0879 34.9192 33.9874 35.0327 33.8869 35.1589C33.7361 35.3355 33.5477 35.5626 33.4221 35.7013C32.4925 36.9376 31.6509 38.3001 30.9097 39.7509C30.8092 39.9527 30.7087 40.1672 30.6082 40.369C30.5203 40.5582 30.4324 40.7475 30.2942 41.0124C30.2565 41.0629 30.2314 41.1133 30.2188 41.1638C30.2188 41.1764 30.2188 41.189 30.2063 41.2016L30.156 41.353C29.8922 42.0595 29.6284 42.7533 29.4023 43.4724C28.9878 44.8222 28.6612 46.2225 28.435 47.7238C28.435 47.7995 28.3974 48.0139 28.3722 48.2158L28.3346 48.569C28.3094 48.9475 28.2843 49.3007 28.2717 49.6413C28.2215 50.4991 28.2215 51.3318 28.2341 52.0508C28.2592 52.8708 28.3346 53.6908 28.4099 54.5865C28.4099 54.637 28.4099 54.6874 28.4099 54.7379C28.4099 54.7884 28.4099 54.8514 28.435 54.9019L28.6109 55.8733C28.925 57.5007 29.3521 59.0523 29.8671 60.5031L30.1686 61.2979C30.1686 61.2979 30.1686 61.3105 30.1686 61.3231C30.1686 61.3483 30.1811 61.3736 30.2063 61.4114C30.2063 61.4366 30.2314 61.4997 30.244 61.5376C30.3319 61.7394 30.4575 61.9917 30.4952 62.0926C30.7841 62.7234 31.1107 63.3668 31.4876 64.048C31.8519 64.704 32.2664 65.3853 32.7438 66.1169C32.8443 66.2683 32.9573 66.4323 33.0578 66.5837C33.1583 66.7225 33.2588 66.8739 33.397 67.0883C33.4221 67.1262 33.4975 67.2523 33.5352 67.2902L33.6357 67.4163C34.7411 68.7662 35.8465 69.9268 37.0148 70.9865C37.2409 71.1883 37.467 71.3775 37.6931 71.5794L37.7685 71.6425L32.3292 70.3305L28.4602 78.7197L31.6258 79.8424L31.9021 79.5649C33.7738 77.6852 36.7761 77.7357 40.821 79.7289C41.11 79.8677 41.7004 80.1578 42.2656 80.1578C42.5923 80.1578 42.9063 80.0569 43.145 79.7794C43.9364 78.8458 42.743 76.3732 41.2481 74.0015C42.0395 74.4557 42.8561 74.9098 43.7605 75.3388C43.8359 75.364 44.0117 75.4397 44.175 75.5154L44.3132 75.5785C44.3132 75.5785 44.3258 75.5785 44.3384 75.5785C44.3635 75.5911 44.4012 75.6037 44.4388 75.6163L44.8534 75.7803C45.5066 76.02 46.1724 76.2471 46.8633 76.4741C48.2325 76.8904 49.6269 77.2184 51.0087 77.4708L51.2599 77.5086C51.4358 77.5338 51.6368 77.5464 51.6493 77.5464C51.6996 77.5717 51.8755 77.5969 51.9257 77.5969C52.692 77.6726 53.4583 77.7231 54.2245 77.7483C55.6315 77.7988 57.0509 77.7483 58.4328 77.6348L59.0106 77.5717C59.1111 77.5717 59.1362 77.5969 59.2241 77.5464C59.287 77.5464 59.3372 77.5464 59.4 77.5212L60.2919 77.3446C60.7441 77.2563 61.1838 77.168 61.6486 77.0671C63.0681 76.7264 64.4248 76.2975 65.6809 75.8181C65.7689 75.7803 65.995 75.692 66.1834 75.6037L66.6356 75.4145C67.3391 75.0865 68.03 74.7206 68.7083 74.3421C69.0224 74.1655 69.3113 73.9889 69.6128 73.8123C69.6882 73.7745 69.751 73.7366 69.8012 73.6988C76.2957 68.968 80.818 62.5342 82.8781 55.0911C83.9459 51.2182 84.373 47.3453 84.2222 42.9173C83.8956 33.0395 79.3734 24.07 71.5096 17.6866L71.5976 17.6488Z" fill="white"/>
<path d="M75.1525 13.2339C66.1331 5.90434 54.8148 2.54866 43.2705 3.75973C31.7387 4.97081 21.3626 10.6351 14.0391 19.7055C-1.1859 38.6033 0.233592 67.3285 17.0916 81.1927C18.9884 82.7444 21.3626 83.5897 23.7871 83.5897C26.9903 83.5897 29.9801 82.1641 32.0025 79.6915C32.1281 79.5401 32.2286 79.3761 32.3417 79.2247C33.6984 78.102 35.5701 77.8497 37.9317 78.5057C39.0246 79.1617 40.1677 79.8051 41.3862 80.3854C41.537 80.4611 41.5872 80.4863 41.7505 80.5494L41.9892 80.6503C42.1776 80.7386 42.366 80.8269 42.567 80.9026C42.7178 80.9657 42.856 81.0161 42.969 81.0666C43.6976 81.3441 44.4513 81.5964 45.3181 81.874C46.9134 82.3533 48.5214 82.7444 50.1041 83.022C50.1544 83.022 50.2046 83.0346 50.2549 83.0472L50.795 83.1229C50.9709 83.1607 51.1468 83.186 51.3101 83.1986C51.3603 83.1986 51.398 83.1986 51.4483 83.2112C52.3402 83.2995 53.2321 83.3626 54.1114 83.3878C55.757 83.4509 57.4151 83.4004 58.9728 83.2617C59.111 83.2617 59.2617 83.2364 59.4502 83.2112C59.5381 83.2112 59.626 83.1986 59.714 83.186C59.7893 83.186 59.8773 83.1733 59.9526 83.1607C60.2039 83.1355 60.4551 83.0977 60.7064 83.0346L61.4475 82.8958C61.95 82.7949 62.4524 82.7066 62.9549 82.593C63.0052 82.593 63.0429 82.5678 63.0805 82.5678C64.7261 82.1641 66.3089 81.6847 67.7159 81.1423C67.8666 81.0918 68.2183 80.9404 68.5198 80.8143L68.8339 80.6755C68.9344 80.6377 69.0349 80.5872 69.1354 80.5367C69.9393 80.1583 70.7307 79.742 71.5472 79.2878C71.8738 79.0986 72.1879 78.922 72.5019 78.7201C72.7281 78.594 72.8913 78.4804 72.9793 78.43C73.0547 78.3795 73.13 78.3291 73.1928 78.2786C80.6294 72.8666 86.031 65.1712 88.3927 56.5928C89.6237 52.1522 90.1136 47.7368 89.9378 42.7033C89.5484 31.1477 84.2975 20.6895 75.1399 13.2465L75.1525 13.2339Z" fill="white" stroke="#248CEA" stroke-width="6" stroke-linecap="round" stroke-linejoin="round"/>
<path d="M75.1525 13.2339C66.1331 5.90434 54.8148 2.54866 43.2705 3.75973C31.7387 4.97081 21.3626 10.6351 14.0391 19.7055C-1.1859 38.6033 0.233592 67.3285 17.0916 81.1927C18.9884 82.7444 21.3626 83.5897 23.7871 83.5897C26.9903 83.5897 29.9801 82.1641 32.0025 79.6915C32.1281 79.5401 32.2286 79.3761 32.3417 79.2247C33.6984 78.102 35.5701 77.8497 37.9317 78.5057C39.0246 79.1617 40.1677 79.8051 41.3862 80.3854C41.537 80.4611 41.5872 80.4863 41.7505 80.5494L41.9892 80.6503C42.1776 80.7386 42.366 80.8269 42.567 80.9026C42.7178 80.9657 42.856 81.0161 42.969 81.0666C43.6976 81.3441 44.4513 81.5964 45.3181 81.874C46.9134 82.3533 48.5214 82.7444 50.1041 83.022C50.1544 83.022 50.2046 83.0346 50.2549 83.0472L50.795 83.1229C50.9709 83.1607 51.1468 83.186 51.3101 83.1986C51.3603 83.1986 51.398 83.1986 51.4483 83.2112C52.3402 83.2995 53.2321 83.3626 54.1114 83.3878C55.757 83.4509 57.4151 83.4004 58.9728 83.2617C59.111 83.2617 59.2617 83.2364 59.4502 83.2112C59.5381 83.2112 59.626 83.1986 59.714 83.186C59.7893 83.186 59.8773 83.1733 59.9526 83.1607C60.2039 83.1355 60.4551 83.0977 60.7064 83.0346L61.4475 82.8958C61.95 82.7949 62.4524 82.7066 62.9549 82.593C63.0052 82.593 63.0429 82.5678 63.0805 82.5678C64.7261 82.1641 66.3089 81.6847 67.7159 81.1423C67.8666 81.0918 68.2183 80.9404 68.5198 80.8143L68.8339 80.6755C68.9344 80.6377 69.0349 80.5872 69.1354 80.5367C69.9393 80.1583 70.7307 79.742 71.5472 79.2878C71.8738 79.0986 72.1879 78.922 72.5019 78.7201C72.7281 78.594 72.8913 78.4804 72.9793 78.43C73.0547 78.3795 73.13 78.3291 73.1928 78.2786C80.6294 72.8666 86.031 65.1712 88.3927 56.5928C89.6237 52.1522 90.1136 47.7368 89.9378 42.7033C89.5484 31.1477 84.2975 20.6895 75.1399 13.2465L75.1525 13.2339Z" fill="white"/>
<path d="M83.6696 42.9053C84.662 58.0059 75.0773 74.7338 59.3122 76.8658C59.2368 76.8658 59.1238 76.8784 59.0986 76.8911C56.737 77.156 54.3377 77.156 51.9635 76.9037C49.5265 76.5631 47.0393 75.8818 44.7404 74.9735C44.7404 74.9735 44.7279 74.9609 44.6902 74.9483C44.6776 74.9483 44.6651 74.9357 44.6651 74.9357C38.4595 72.3117 33.372 67.3034 30.7968 61.0336C28.2593 54.789 28.2216 47.6361 30.8219 41.4041H30.8345C30.8345 41.4041 30.8345 41.3536 30.8345 41.341C32.3419 37.9727 34.5402 34.9324 37.3541 32.5607C37.3666 32.5607 37.3792 32.5607 37.3792 32.5481C38.6103 31.6146 39.879 30.845 41.3111 30.2143C41.3236 30.2143 41.3362 30.2143 41.3487 30.2143C41.3487 30.2143 41.3487 30.2143 41.3487 30.2017H41.3613C45.0922 28.6374 49.2501 28.8392 52.9685 30.353C55.619 31.5893 58.1314 33.242 59.978 35.5379C59.9905 35.5506 60.0031 35.5632 60.0031 35.5758C61.2718 37.3293 62.0758 39.373 62.4024 41.5176C62.7541 45.4662 62.9802 49.9321 60.5935 53.3382C59.978 54.0447 59.2745 54.6628 58.458 55.1044C58.056 55.2179 57.6415 55.3188 57.252 55.4702C56.0587 55.5333 54.815 55.445 53.7096 54.9656C53.697 54.953 53.6719 54.953 53.6719 54.953C53.3202 54.7637 52.9684 54.5745 52.6418 54.3474C52.8303 54.3979 51.7625 53.6157 51.662 53.3887C51.6997 53.4265 51.7248 53.4391 51.7374 53.4517C50.6571 52.1902 50.1672 50.3862 50.3933 48.7336C50.3933 48.6958 50.3933 48.6705 50.4058 48.6453C51.3228 45.7185 52.3278 41.9844 48.9361 40.1804C40.8839 36.5472 38.9369 48.8471 40.8839 54.3853C42.1276 58.2708 44.753 61.7526 48.3582 63.6954C68.6959 72.9929 78.1675 47.8631 69.9018 32.2327C65.7815 24.4238 56.7119 19.466 48.0945 18.9235C24.0259 17.2079 8.27338 53.6662 26.5132 69.5742C30.8973 73.22 25.3952 79.8935 21.0237 76.3108C-1.97709 57.413 12.2555 12.3005 43.9114 10.0423C63.244 7.50665 83.4561 22.9478 83.6696 42.9053Z" fill="#F938A5"/>
</svg>
